HIERARCHY
ROOT Hips
{
 OFFSET 0.000000 0.000000 0.000000
 CHANNELS 6 Xposition Yposition Zposition Yrotation Xrotation Zrotation
 JOINT Chest
 {
  OFFSET 0.000000 11.395451 -0.039534
  CHANNELS 3 Yrotation Xrotation Zrotation
  JOINT Chest2
  {
   OFFSET 0.000000 9.398669 0.071813
   CHANNELS 3 Yrotation Xrotation Zrotation
   JOINT Chest3
   {
    OFFSET 0.000000 8.489801 0.000000
    CHANNELS 3 Yrotation Xrotation Zrotation
    JOINT Chest4
    {
     OFFSET 0.000000 8.489801 0.000000
     CHANNELS 3 Yrotation Xrotation Zrotation
     JOINT Neck
     {
      OFFSET 0.000000 12.404889 0.000000
      CHANNELS 3 Yrotation Xrotation Zrotation
      JOINT Head
      {
       OFFSET 0.000000 8.903270 0.092239
       CHANNELS 3 Yrotation Xrotation Zrotation
       End Site
       {
        OFFSET 0.000000 17.592497 0.007158
       }
      }
     }
     JOINT RightCollar
     {
      OFFSET -3.196775 6.966722 0.000000
      CHANNELS 3 Yrotation Xrotation Zrotation
      JOINT RightShoulder
      {
       OFFSET -15.955896 0.000000 0.000000
       CHANNELS 3 Yrotation Xrotation Zrotation
       JOINT RightElbow
       {
        OFFSET -24.792472 0.000000 0.000000
        CHANNELS 3 Yrotation Xrotation Zrotation
        JOINT RightWrist
        {
         OFFSET -20.900115 0.000000 0.025002
         CHANNELS 3 Yrotation Xrotation Zrotation
         End Site
         {
          OFFSET -16.056692 0.000000 0.000000
         }
        }
       }
      }
     }
     JOINT LeftCollar
     {
      OFFSET 3.196775 6.966722 0.000000
      CHANNELS 3 Yrotation Xrotation Zrotation
      JOINT LeftShoulder
      {
       OFFSET 15.955896 0.000000 0.000000
       CHANNELS 3 Yrotation Xrotation Zrotation
       JOINT LeftElbow
       {
        OFFSET 24.792472 0.000000 0.000000
        CHANNELS 3 Yrotation Xrotation Zrotation
        JOINT LeftWrist
        {
         OFFSET 20.900115 0.000000 0.025002
         CHANNELS 3 Yrotation Xrotation Zrotation
         End Site
         {
          OFFSET 16.056692 0.000000 0.000000
         }
        }
       }
      }
     }
    }
   }
  }
 }
 JOINT RightHip
 {
  OFFSET -9.568995 0.193718 0.019767
  CHANNELS 3 Yrotation Xrotation Zrotation
  JOINT RightKnee
  {
   OFFSET 0.000000 -56.649296 0.015402
   CHANNELS 3 Yrotation Xrotation Zrotation
   JOINT RightAnkle
   {
    OFFSET 0.000000 -41.365147 0.021264
    CHANNELS 3 Yrotation Xrotation Zrotation
    JOINT RightToe
    {
     OFFSET 0.000000 -7.465940 17.672538
     CHANNELS 3 Yrotation Xrotation Zrotation
     End Site
     {
      OFFSET 0.000000 -1.736315 7.837145
     }
    }
   }
  }
 }
 JOINT LeftHip
 {
  OFFSET 9.568995 0.193718 0.019767
  CHANNELS 3 Yrotation Xrotation Zrotation
  JOINT LeftKnee
  {
   OFFSET 0.000000 -56.649296 0.015402
   CHANNELS 3 Yrotation Xrotation Zrotation
   JOINT LeftAnkle
   {
    OFFSET 0.000000 -41.365147 0.021264
    CHANNELS 3 Yrotation Xrotation Zrotation
    JOINT LeftToe
    {
     OFFSET 0.000000 -7.465940 17.672538
     CHANNELS 3 Yrotation Xrotation Zrotation
     End Site
     {
      OFFSET 0.000000 -1.736315 7.837145
     }
    }
   }
  }
 }
}
MOTION
Frames: 11
Frame Time: 0.016667
78.906422 104.910856 290.706256 -122.418329 13.778690 3.514022 -3.472272 6.877825 -0.991791 -1.525639 3.064147 -0.388418 -1.525639 3.064147 -0.388418 -1.142008 2.299098 -0.283590 -5.712154 10.338147 3.347228 -12.566156 -16.349838 9.057644 5.326552 4.312384 6.698526 11.283050 -22.054714 45.436652 40.942243 -30.417783 28.536582 8.696577 -22.529925 3.772690 -0.986405 8.742481 -2.971288 -3.349558 -29.346025 -53.618701 -34.494585 -46.299928 -40.658149 12.759450 -21.507437 -3.250007 -5.536851 -31.495138 0.627169 2.087371 14.478113 -0.466977 6.048219 1.437945 0.508771 -0.000000 -0.000000 0.000000 8.318713 -33.945846 -6.316432 -0.401738 25.578209 -2.377216 -1.260119 -6.216574 -6.775282 0.000000 0.000000 0.000000
78.456852 104.906171 290.481957 -123.384889 14.444387 3.392509 -2.942255 6.798462 -1.025691 -1.290262 3.027849 -0.411820 -1.290263 3.027814 -0.411809 -0.965427 2.271739 -0.302387 -5.770830 10.630761 3.311878 -12.620670 -15.806983 8.970416 5.323291 4.722929 6.981177 12.094333 -22.056094 44.770945 40.875577 -30.599614 28.000214 9.026479 -22.662817 3.690856 -1.329708 9.200842 -2.851648 -3.305435 -29.871911 -53.941676 -34.747589 -46.154809 -39.952954 12.655501 -21.349916 -3.651580 -4.997786 -31.997240 0.752268 2.536489 14.658176 -0.433838 5.987137 1.238464 0.430806 -0.000000 -0.000000 0.000000 7.788991 -33.055052 -6.252806 1.031462 20.953652 -1.752583 -1.566085 -3.894112 -5.807301 -0.000000 0.000000 -0.000000
77.958630 104.879574 290.280927 -124.558634 15.081708 3.207761 -2.339301 6.679072 -1.084019 -1.022263 2.973776 -0.447181 -1.022266 2.973750 -0.447170 -0.764349 2.231073 -0.330323 -5.813377 11.050556 3.298026 -12.634340 -15.028669 8.897494 5.238551 5.022809 7.377434 13.050357 -21.846894 44.065527 40.755734 -30.755646 27.374965 9.312511 -22.805748 3.655695 -1.728447 9.579554 -2.752727 -3.177921 -30.257935 -54.277707 -34.909528 -45.995794 -39.298069 12.545165 -21.183786 -4.025628 -4.348769 -32.487231 0.896179 3.090477 14.889253 -0.405694 5.897550 1.014336 0.379363 0.000000 -0.000000 0.000000 7.550659 -32.027235 -6.386055 2.757202 16.906137 -0.958717 -1.748863 -0.812041 -3.599733 0.000000 -0.000000 0.000000
77.537133 104.857440 290.133993 -125.586343 15.787890 3.058586 -1.883678 6.597237 -1.161784 -0.819217 2.936786 -0.488643 -0.819217 2.936786 -0.488643 -0.611929 2.203250 -0.362463 -5.808755 11.377940 3.329428 -12.590422 -14.420719 8.905082 5.141332 5.254810 7.728530 14.004505 -21.935674 43.502246 40.523731 -30.733908 26.822573 9.536551 -22.924318 3.641832 -2.057932 9.862724 -2.686860 -3.033792 -30.677465 -54.512622 -35.052576 -45.823483 -38.653093 12.432986 -21.053640 -4.413922 -3.597767 -33.132116 0.923418 3.385728 15.188478 -0.432404 5.855857 0.800010 0.382453 0.000000 0.000000 0.000000 7.752048 -31.506460 -6.708650 3.565527 14.117953 -0.448595 -1.708617 1.372658 -1.924277 -0.000000 0.000000 -0.000000
77.250598 104.852683 290.054612 -126.364245 16.597847 2.991270 -1.662864 6.585283 -1.281874 -0.719555 2.931384 -0.545131 -0.719549 2.931378 -0.545133 -0.536926 2.199166 -0.405306 -5.727644 11.528919 3.446188 -12.462884 -14.136552 9.070741 5.017562 5.391021 8.026340 15.026426 -22.508588 43.149248 40.142034 -30.458482 26.318100 9.674400 -23.010202 3.656136 -2.282433 9.968155 -2.649863 -2.775273 -31.183611 -54.638540 -35.146444 -45.564670 -38.062018 12.324326 -20.972080 -4.835836 -2.562097 -34.026048 0.690188 3.151136 15.618190 -0.558638 5.892955 0.604870 0.472990 0.000000 0.000000 0.000000 8.766558 -31.792438 -7.365503 2.578261 13.240848 -0.336562 -1.286478 1.813560 -1.499349 0.000000 -0.000000 0.000000
77.040788 104.852389 290.029327 -126.993640 17.480229 2.963421 -1.590814 6.609374 -1.418031 -0.685570 2.942330 -0.606462 -0.685564 2.942317 -0.606458 -0.511135 2.207408 -0.451436 -5.597386 11.587907 3.604893 -12.273124 -14.022923 9.310170 4.881530 5.462634 8.279491 16.073384 -23.386954 42.918143 39.652048 -30.004536 25.876239 9.749605 -23.071944 3.692340 -2.438763 9.977843 -2.644622 -2.498517 -31.723402 -54.665336 -35.217288 -45.293439 -37.482633 12.213951 -20.924700 -5.271672 -1.405286 -35.072288 0.310433 2.655632 16.116303 -0.742507 5.978134 0.419487 0.617118 0.000000 0.000000 0.000000 10.237578 -32.566242 -8.224358 0.777023 13.650375 -0.414304 -0.668695 1.361732 -1.605934 0.000000 -0.000000 -0.000000
76.858379 104.844193 290.048590 -127.426704 18.436270 2.946305 -1.626033 6.648975 -1.490768 -0.700032 2.960286 -0.638077 -0.700032 2.960286 -0.638077 -0.521815 2.220952 -0.475059 -5.474308 11.587548 3.703284 -12.079823 -14.026205 9.446189 4.840739 5.598003 8.350648 16.843548 -24.545448 42.744012 39.117850 -29.440831 25.714248 9.816078 -23.100886 3.705137 -2.511442 10.120930 -2.696342 -2.566564 -32.309856 -54.491532 -35.417983 -45.230492 -36.748975 12.090440 -20.915364 -5.704426 -0.670489 -36.159949 0.058934 2.347363 16.514865 -0.900142 6.095245 0.249866 0.742067 0.000000 0.000000 0.000000 11.193316 -33.562947 -8.806171 -0.183985 14.144756 -0.491693 -0.370427 0.941603 -1.910643 -0.000000 -0.000000 0.000000
76.700916 104.826974 290.118772 -127.554116 19.462412 2.944799 -1.825234 6.712500 -1.447555 -0.788818 2.988996 -0.615794 -0.788824 2.989015 -0.615813 -0.588473 2.242581 -0.457910 -5.364468 11.509925 3.701636 -11.880064 -14.184276 9.407883 4.986532 5.874681 8.105328 17.042160 -26.223114 42.690906 38.462541 -28.692382 26.132312 9.952292 -23.065633 3.654879 -2.459353 10.541337 -2.862943 -3.190686 -32.960626 -53.994613 -35.886744 -45.534256 -35.722934 11.882245 -20.994982 -6.106597 -0.925367 -37.239277 0.250321 2.527064 16.719627 -1.036427 6.305516 0.097372 0.826818 0.000000 -0.000000 0.000000 10.685260 -34.833934 -8.520044 0.882128 14.384340 -0.503597 -0.708156 0.860859 -2.482695 0.000000 0.000000 0.000000
76.570853 104.801853 290.233501 -127.480693 20.562534 2.966000 -2.126390 6.793477 -1.333659 -0.923803 3.025381 -0.560500 -0.923808 3.025391 -0.560520 -0.689922 2.269910 -0.415732 -5.265399 11.372289 3.640129 -11.684354 -14.460205 9.268874 5.207586 6.211970 7.667630 16.949631 -28.191868 42.743943 37.784961 -27.815350 26.807669 10.080711 -22.998127 3.580496 -2.335338 11.093670 -3.097821 -4.173538 -33.643813 -53.247649 -36.494888 -46.042838 -34.532744 11.662228 -21.112923 -6.506449 -1.646638 -38.361424 0.638238 2.895841 16.824536 -1.143394 6.547403 -0.039876 0.892145 0.000000 0.000000 0.000000 9.604465 -36.336945 -7.857757 2.792796 14.711475 -0.489993 -1.365790 0.816139 -3.253516 -0.000000 0.000000 -0.000000
76.426226 104.759822 290.364121 -127.483415 21.748442 2.977944 -2.310510 6.849388 -1.222243 -1.006930 3.050207 -0.508055 -1.006930 3.050207 -0.508055 -0.752482 2.288501 -0.375923 -5.222918 11.259231 3.537944 -11.576007 -14.688916 9.072514 5.315919 6.498481 7.292516 17.143521 -29.726127 42.667406 37.387442 -27.093799 27.054766 10.021026 -22.984148 3.553963 -2.255612 11.573872 -3.264133 -5.266286 -34.303282 -52.448250 -36.983067 -46.500791 -33.425598 11.632460 -21.116587 -6.969717 -1.722805 -39.584251 0.625073 3.005180 16.946059 -1.113266 6.620619 -0.159978 0.928620 0.000000 0.000000 0.000000 9.792558 -37.718460 -8.049867 3.655634 14.935414 -0.380553 -1.911471 0.817159 -3.685527 0.000000 -0.000000 0.000000
76.218031 104.696741 290.502512 -127.665161 23.030716 2.952598 -2.287256 6.844172 -1.132315 -0.997951 3.047404 -0.468513 -0.997943 3.047407 -0.468499 -0.745936 2.286328 -0.346302 -5.270569 11.219474 3.375198 -11.603633 -14.778181 8.787750 5.247670 6.689105 7.079968 17.887558 -30.415029 42.325245 37.445392 -26.663106 26.544918 9.711069 -23.077310 3.579408 -2.235418 11.906230 -3.328893 -6.478182 -34.868658 -51.666176 -37.263354 -46.965835 -32.449422 11.845954 -20.872227 -7.505434 -0.473302 -40.894283 -0.253816 2.614883 17.070690 -0.835924 6.364615 -0.242474 0.927767 0.000000 -0.000000 0.000000 12.853883 -38.665379 -10.269658 2.188731 14.878446 -0.099118 -2.245207 0.912913 -3.462990 0.000000 -0.000000 -0.000000
